<?xml version="1.0" encoding="utf-8"?>
<!-- Uploaded to: SVG Repo, www.svgrepo.com, Generator: SVG Repo Mixer Tools -->
<svg width="800px" height="800px" viewBox="0 0 1024 1024" class="icon"  version="1.1" xmlns="http://www.w3.org/2000/svg"><path d="M319.893333 938.666667l384 0 0 64-384 0 0-64Z" fill="#9FDBAD" /><path d="M682.56 960v21.333333h-341.333333v-21.333333h341.333333m14.933333-42.666667H326.506667a27.733333 27.733333 0 0 0-27.733334 27.733334v51.2a27.733333 27.733333 0 0 0 27.733334 27.733333h371.2a27.733333 27.733333 0 0 0 27.733333-27.733333v-51.2a27.733333 27.733333 0 0 0-27.733333-27.733334z" fill="#5C2D51" /><path d="M463.466667 421.333333h96.853333v230.613334h-96.853333z" fill="#FDCA89" /><path d="M538.986667 442.666667v187.946666h-54.186667v-187.946666h54.186667m42.666666-42.666667h-139.52v273.28h139.52V400z" fill="#5C2D51" /><path d="M511.893333 938.666667a181.546667 181.546667 0 1 1 181.546667-181.546667A181.76 181.76 0 0 1 511.893333 938.666667z" fill="#F05071" /><path d="M511.893333 597.333333a160.213333 160.213333 0 1 1-160.213333 160.213334A160.426667 160.426667 0 0 1 511.893333 597.333333m0-42.666666a202.88 202.88 0 1 0 202.88 202.88A202.88 202.88 0 0 0 511.893333 554.666667z" fill="#5C2D51" /><path d="M102.506667 492.586667a19.84 19.84 0 0 1-19.84-25.6L217.28 48.64A39.253333 39.253333 0 0 1 254.613333 21.333333h514.56a39.04 39.04 0 0 1 37.333334 27.306667l133.546666 418.133333a19.84 19.84 0 0 1-18.773333 25.813334z" fill="#FDCA89" /><path d="M769.173333 42.666667a17.92 17.92 0 0 1 17.066667 12.586666l132.906667 416.213334H104L237.546667 55.253333a17.92 17.92 0 0 1 17.066666-12.586666h514.56m0-42.666667H254.613333a60.586667 60.586667 0 0 0-57.6 42.666667L63.253333 460.373333a41.173333 41.173333 0 0 0 39.04 53.546667h819.2a41.173333 41.173333 0 0 0 39.04-53.546667L826.986667 42.666667a60.586667 60.586667 0 0 0-57.813334-42.666667z" fill="#5C2D51" /></svg>